# Original title-art-inspired faceted mesh; Y up, authored by Harry + Astra.
# Independent closed components may intersect at their attachment points.
mtllib horse_head_hifi.mtl
o horse_head_hifi
s off
v -1.3440000 -2.0500000 -0.4400000
v -1.3560000 -1.0500000 -0.4300000
v -1.2960000 0.0500000 -0.4000000
v -1.1280000 1.0200000 -0.3400000
v -0.8400000 1.7200000 -0.2700000
v -0.4080000 2.1700000 -0.2400000
v 0.0480000 2.2500000 -0.2500000
v 0.4800000 1.9800000 -0.2700000
v 0.8400000 1.5200000 -0.2600000
v 1.2600000 1.0200000 -0.2350000
v 1.7760000 0.5400000 -0.2450000
v 2.1480000 0.2300000 -0.2900000
v 2.2080000 -0.1600000 -0.2800000
v 1.9680000 -0.4000000 -0.2400000
v 1.5360000 -0.3700000 -0.2350000
v 1.0440000 -0.1500000 -0.2800000
v 0.5040000 0.0700000 -0.3600000
v 0.1680000 0.3200000 -0.3200000
v 0.0240000 -0.4700000 -0.3500000
v 0.3120000 -1.2400000 -0.4200000
v 0.6720000 -2.0500000 -0.4700000
v -0.7440000 -1.6500000 -0.6600000
v -0.3360000 -1.1300000 -0.6000000
v -0.7920000 -0.5500000 -0.5700000
v -0.6360000 0.3500000 -0.5500000
v -0.4560000 1.1000000 -0.4800000
v -0.1560000 1.6800000 -0.4100000
v 0.2880000 1.3700000 -0.4900000
v 0.3240000 0.7700000 -0.6000000
v 0.7080000 0.5700000 -0.4800000
v 0.9960000 0.3500000 -0.4050000
v 1.4160000 0.3000000 -0.3650000
v 1.8000000 0.0500000 -0.3550000
v -0.1200000 -0.0400000 -0.4800000
v -1.3440000 -2.0500000 0.4400000
v -1.3560000 -1.0500000 0.4300000
v -1.2960000 0.0500000 0.4000000
v -1.1280000 1.0200000 0.3400000
v -0.8400000 1.7200000 0.2700000
v -0.4080000 2.1700000 0.2400000
v 0.0480000 2.2500000 0.2500000
v 0.4800000 1.9800000 0.2700000
v 0.8400000 1.5200000 0.2600000
v 1.2600000 1.0200000 0.2350000
v 1.7760000 0.5400000 0.2450000
v 2.1480000 0.2300000 0.2900000
v 2.2080000 -0.1600000 0.2800000
v 1.9680000 -0.4000000 0.2400000
v 1.5360000 -0.3700000 0.2350000
v 1.0440000 -0.1500000 0.2800000
v 0.5040000 0.0700000 0.3600000
v 0.1680000 0.3200000 0.3200000
v 0.0240000 -0.4700000 0.3500000
v 0.3120000 -1.2400000 0.4200000
v 0.6720000 -2.0500000 0.4700000
v -0.7440000 -1.6500000 0.6600000
v -0.3360000 -1.1300000 0.6000000
v -0.7920000 -0.5500000 0.5700000
v -0.6360000 0.3500000 0.5500000
v -0.4560000 1.1000000 0.4800000
v -0.1560000 1.6800000 0.4100000
v 0.2880000 1.3700000 0.4900000
v 0.3240000 0.7700000 0.6000000
v 0.7080000 0.5700000 0.4800000
v 0.9960000 0.3500000 0.4050000
v 1.4160000 0.3000000 0.3650000
v 1.8000000 0.0500000 0.3550000
v -0.1200000 -0.0400000 0.4800000
v -1.3440000 -2.0500000 0.0000000
v -1.3560000 -1.0500000 0.0000000
v -1.2960000 0.0500000 0.0000000
v -1.1280000 1.0200000 0.0000000
v -0.8400000 1.7200000 0.0000000
v -0.4080000 2.1700000 0.0000000
v 0.0480000 2.2500000 0.0000000
v 0.4800000 1.9800000 0.0000000
v 0.8400000 1.5200000 0.0000000
v 1.2600000 1.0200000 0.0000000
v 1.7760000 0.5400000 0.0000000
v 2.1480000 0.2300000 0.0000000
v 2.2080000 -0.1600000 0.0000000
v 1.9680000 -0.4000000 0.0000000
v 1.5360000 -0.3700000 0.0000000
v 1.0440000 -0.1500000 0.0000000
v 0.5040000 0.0700000 0.0000000
v 0.1680000 0.3200000 0.0000000
v 0.0240000 -0.4700000 0.0000000
v 0.3120000 -1.2400000 0.0000000
v 0.6720000 -2.0500000 0.0000000
v -0.4320000 2.0500000 -0.4950000
v 0.0720000 2.1300000 -0.4800000
v 0.0600000 2.1800000 -0.2800000
v -0.4200000 2.1000000 -0.2650000
v -0.3840000 2.5600000 -0.4900000
v -0.0600000 2.5700000 -0.4500000
v -0.0480000 2.5900000 -0.3200000
v -0.3720000 2.5700000 -0.2700000
v -0.1440000 3.0300000 -0.4800000
v -0.4320000 2.0500000 0.2650000
v 0.0720000 2.1300000 0.2800000
v 0.0600000 2.1800000 0.4800000
v -0.4200000 2.1000000 0.4950000
v -0.3840000 2.5600000 0.2700000
v -0.0600000 2.5700000 0.3100000
v -0.0480000 2.5900000 0.4400000
v -0.3720000 2.5700000 0.4900000
v -0.1440000 3.0300000 0.4800000
v 0.4980000 1.3600000 -0.6080000
v 0.4050000 1.4509327 -0.6080000
v 0.2190000 1.4509327 -0.6080000
v 0.1260000 1.3600000 -0.6080000
v 0.2190000 1.2690673 -0.6080000
v 0.4050000 1.2690673 -0.6080000
v 0.3120000 1.3600000 -0.4200000
v 1.9560000 0.0800000 -0.4680000
v 1.8660000 0.2185641 -0.4680000
v 1.6860000 0.2185641 -0.4680000
v 1.5960000 0.0800000 -0.4680000
v 1.6860000 -0.0585641 -0.4680000
v 1.8660000 -0.0585641 -0.4680000
v 1.7760000 0.0800000 -0.2800000
v 0.4980000 1.3600000 0.6080000
v 0.4050000 1.4509327 0.6080000
v 0.2190000 1.4509327 0.6080000
v 0.1260000 1.3600000 0.6080000
v 0.2190000 1.2690673 0.6080000
v 0.4050000 1.2690673 0.6080000
v 0.3120000 1.3600000 0.4200000
v 1.9560000 0.0800000 0.4680000
v 1.8660000 0.2185641 0.4680000
v 1.6860000 0.2185641 0.4680000
v 1.5960000 0.0800000 0.4680000
v 1.6860000 -0.0585641 0.4680000
v 1.8660000 -0.0585641 0.4680000
v 1.7760000 0.0800000 0.2800000
g body
usemtl purple
f 2 22 1
f 1 22 21
f 21 22 20
f 4 5 26
f 4 25 3
f 4 26 25
f 18 25 29
f 26 29 25
f 2 23 22
f 22 23 20
f 20 23 19
f 10 29 9
f 18 34 25
f 10 30 29
g body
usemtl light_blue
f 10 31 30
g body
usemtl purple
f 18 29 30
f 18 30 17
f 31 17 30
f 2 24 23
f 19 23 24
f 2 3 24
f 19 24 34
f 3 25 24
f 25 34 24
f 26 28 29
f 29 28 9
f 8 9 28
g body
usemtl light_blue
f 10 32 31
f 10 11 32
g body
usemtl purple
f 31 16 17
g body
usemtl light_blue
f 31 32 16
g body
usemtl purple
f 26 5 27
f 26 27 28
f 5 6 27
f 7 27 6
f 7 8 27
f 8 28 27
g body
usemtl cyan
f 13 33 12
f 12 33 11
g body
usemtl light_blue
f 11 33 32
f 15 16 33
f 32 33 16
g body
usemtl cyan
f 13 14 33
f 14 15 33
g body
usemtl purple
f 18 19 34
g body
usemtl blue
f 35 56 36
f 55 56 35
f 54 56 55
g body
usemtl purple
f 60 39 38
f 37 59 38
f 59 60 38
f 63 59 52
f 59 63 60
g body
usemtl blue
f 56 57 36
f 54 57 56
f 53 57 54
g body
usemtl purple
f 43 63 44
f 59 68 52
f 63 64 44
g body
usemtl light_blue
f 64 65 44
g body
usemtl purple
f 64 63 52
f 51 64 52
f 64 51 65
g body
usemtl blue
f 57 58 36
f 58 57 53
f 58 37 36
g body
usemtl purple
f 68 58 53
f 58 59 37
f 58 68 59
f 63 62 60
f 43 62 63
f 62 43 42
g body
usemtl light_blue
f 65 66 44
f 66 45 44
g body
usemtl purple
f 51 50 65
g body
usemtl light_blue
f 50 66 65
g body
usemtl purple
f 61 39 60
f 62 61 60
f 61 40 39
f 40 61 41
f 61 42 41
f 61 62 42
g body
usemtl cyan
f 46 67 47
f 45 67 46
g body
usemtl light_blue
f 66 67 45
f 67 50 49
f 50 67 66
g body
usemtl cyan
f 67 48 47
f 67 49 48
g body
usemtl purple
f 68 53 52
f 69 70 2 1
g body
usemtl blue
f 35 36 70 69
g body
usemtl purple
f 70 71 3 2
f 36 37 71 70
f 71 72 4 3
f 37 38 72 71
f 72 73 5 4
f 38 39 73 72
f 73 74 6 5
f 39 40 74 73
f 74 75 7 6
f 40 41 75 74
f 75 76 8 7
f 41 42 76 75
f 76 77 9 8
f 42 43 77 76
g body
usemtl light_blue
f 77 78 10 9
f 43 44 78 77
f 78 79 11 10
f 44 45 79 78
g body
usemtl cyan
f 79 80 12 11
f 45 46 80 79
f 80 81 13 12
f 46 47 81 80
f 81 82 14 13
f 47 48 82 81
f 82 83 15 14
f 48 49 83 82
g body
usemtl light_blue
f 83 84 16 15
f 49 50 84 83
g body
usemtl purple
f 84 85 17 16
f 50 51 85 84
f 85 86 18 17
f 51 52 86 85
f 86 87 19 18
f 52 53 87 86
f 87 88 20 19
g body
usemtl blue
f 53 54 88 87
g body
usemtl purple
f 88 89 21 20
g body
usemtl blue
f 54 55 89 88
g body
usemtl purple
f 89 69 1 21
g body
usemtl blue
f 55 35 69 89
g ear_left
usemtl purple
f 90 91 92 93
f 94 95 91 90
f 95 96 92 91
f 96 97 93 92
f 97 94 90 93
f 98 95 94
g ear_left
usemtl blue
f 98 96 95
g ear_left
usemtl purple
f 98 97 96
f 98 94 97
g ear_right
usemtl purple
f 99 100 101 102
f 103 104 100 99
f 104 105 101 100
f 105 106 102 101
f 106 103 99 102
f 107 104 103
g ear_right
usemtl blue
f 107 105 104
g ear_right
usemtl purple
f 107 106 105
f 107 103 106
g eye_-1
usemtl light_blue
f 113 112 111 110 109 108
g eye_-1
usemtl blue
f 114 108 109
f 114 109 110
f 114 110 111
f 114 111 112
f 114 112 113
f 114 113 108
g nostril_-1
usemtl cyan
f 120 119 118 117 116 115
g nostril_-1
usemtl light_blue
f 121 115 116
f 121 116 117
f 121 117 118
f 121 118 119
f 121 119 120
f 121 120 115
g eye_1
usemtl light_blue
f 122 123 124 125 126 127
g eye_1
usemtl blue
f 123 122 128
f 124 123 128
f 125 124 128
f 126 125 128
f 127 126 128
f 122 127 128
g nostril_1
usemtl cyan
f 129 130 131 132 133 134
g nostril_1
usemtl light_blue
f 130 129 135
f 131 130 135
f 132 131 135
f 133 132 135
f 134 133 135
f 129 134 135
