# Original title-art-inspired faceted mesh; Y up, authored by Harry + Astra.
# Independent closed components may intersect at their attachment points.
mtllib sunflower_torus_hifi.mtl
o sunflower_torus_hifi
s off
v 0.9350000 0.7800000 0.0000000
v 0.8348075 0.7800000 0.1379032
v 0.6726925 0.7800000 0.0852289
v 0.6726925 0.7800000 -0.0852289
v 0.8348075 0.7800000 -0.1379032
v 0.8892378 1.0689309 0.0000000
v 0.7939491 1.0379697 0.1379032
v 0.6397686 0.9878734 0.0852289
v 0.6397686 0.9878734 -0.0852289
v 0.7939491 1.0379697 -0.1379032
v 0.7564309 1.3295792 0.0000000
v 0.6753734 1.2706875 0.1379032
v 0.5442197 1.1753988 0.0852289
v 0.5442197 1.1753988 -0.0852289
v 0.6753734 1.2706875 -0.1379032
v 0.5495792 1.5364309 0.0000000
v 0.4906875 1.4553734 0.1379032
v 0.3953988 1.3242197 0.0852289
v 0.3953988 1.3242197 -0.0852289
v 0.4906875 1.4553734 -0.1379032
v 0.2889309 1.6692378 0.0000000
v 0.2579697 1.5739491 0.1379032
v 0.2078734 1.4197686 0.0852289
v 0.2078734 1.4197686 -0.0852289
v 0.2579697 1.5739491 -0.1379032
v 0.0000000 1.7150000 0.0000000
v 0.0000000 1.6148075 0.1379032
v 0.0000000 1.4526925 0.0852289
v 0.0000000 1.4526925 -0.0852289
v 0.0000000 1.6148075 -0.1379032
v -0.2889309 1.6692378 0.0000000
v -0.2579697 1.5739491 0.1379032
v -0.2078734 1.4197686 0.0852289
v -0.2078734 1.4197686 -0.0852289
v -0.2579697 1.5739491 -0.1379032
v -0.5495792 1.5364309 0.0000000
v -0.4906875 1.4553734 0.1379032
v -0.3953988 1.3242197 0.0852289
v -0.3953988 1.3242197 -0.0852289
v -0.4906875 1.4553734 -0.1379032
v -0.7564309 1.3295792 0.0000000
v -0.6753734 1.2706875 0.1379032
v -0.5442197 1.1753988 0.0852289
v -0.5442197 1.1753988 -0.0852289
v -0.6753734 1.2706875 -0.1379032
v -0.8892378 1.0689309 0.0000000
v -0.7939491 1.0379697 0.1379032
v -0.6397686 0.9878734 0.0852289
v -0.6397686 0.9878734 -0.0852289
v -0.7939491 1.0379697 -0.1379032
v -0.9350000 0.7800000 0.0000000
v -0.8348075 0.7800000 0.1379032
v -0.6726925 0.7800000 0.0852289
v -0.6726925 0.7800000 -0.0852289
v -0.8348075 0.7800000 -0.1379032
v -0.8892378 0.4910691 0.0000000
v -0.7939491 0.5220303 0.1379032
v -0.6397686 0.5721266 0.0852289
v -0.6397686 0.5721266 -0.0852289
v -0.7939491 0.5220303 -0.1379032
v -0.7564309 0.2304208 0.0000000
v -0.6753734 0.2893125 0.1379032
v -0.5442197 0.3846012 0.0852289
v -0.5442197 0.3846012 -0.0852289
v -0.6753734 0.2893125 -0.1379032
v -0.5495792 0.0235691 0.0000000
v -0.4906875 0.1046266 0.1379032
v -0.3953988 0.2357803 0.0852289
v -0.3953988 0.2357803 -0.0852289
v -0.4906875 0.1046266 -0.1379032
v -0.2889309 -0.1092378 0.0000000
v -0.2579697 -0.0139491 0.1379032
v -0.2078734 0.1402314 0.0852289
v -0.2078734 0.1402314 -0.0852289
v -0.2579697 -0.0139491 -0.1379032
v -0.0000000 -0.1550000 0.0000000
v -0.0000000 -0.0548075 0.1379032
v -0.0000000 0.1073075 0.0852289
v -0.0000000 0.1073075 -0.0852289
v -0.0000000 -0.0548075 -0.1379032
v 0.2889309 -0.1092378 0.0000000
v 0.2579697 -0.0139491 0.1379032
v 0.2078734 0.1402314 0.0852289
v 0.2078734 0.1402314 -0.0852289
v 0.2579697 -0.0139491 -0.1379032
v 0.5495792 0.0235691 0.0000000
v 0.4906875 0.1046266 0.1379032
v 0.3953988 0.2357803 0.0852289
v 0.3953988 0.2357803 -0.0852289
v 0.4906875 0.1046266 -0.1379032
v 0.7564309 0.2304208 0.0000000
v 0.6753734 0.2893125 0.1379032
v 0.5442197 0.3846012 0.0852289
v 0.5442197 0.3846012 -0.0852289
v 0.6753734 0.2893125 -0.1379032
v 0.8892378 0.4910691 0.0000000
v 0.7939491 0.5220303 0.1379032
v 0.6397686 0.5721266 0.0852289
v 0.6397686 0.5721266 -0.0852289
v 0.7939491 0.5220303 -0.1379032
v 0.9000000 0.7280000 0.0000000
v 1.1000000 0.6350000 0.0100000
v 1.4300000 0.7800000 -0.1800000
v 1.1300000 0.9250000 0.0350000
v 0.9000000 0.8350000 0.0000000
v 1.1300000 0.7800000 -0.1500000
v 0.8513911 1.0763734 0.0000000
v 1.0717566 1.0669892 0.0100000
v 1.3424282 1.3729449 -0.1235578
v 0.9884948 1.3463948 0.0350000
v 0.8104440 1.1752285 0.0000000
v 1.0439839 1.2124323 -0.1500000
v 0.6731657 1.3796266 0.0000000
v 0.8803479 1.4552870 0.0100000
v 0.9833725 1.7414689 -0.0816601
v 0.6965002 1.6815611 0.0350000
v 0.5975052 1.4552870 0.0000000
v 0.7990307 1.5790307 -0.1500000
v 0.3924568 1.5915920 0.0000000
v 0.5549143 1.7407784 0.0100000
v 0.5889285 2.1311226 -0.1488989
v 0.2984697 1.8794730 0.0350000
v 0.2936017 1.6325392 0.0000000
v 0.4324323 1.8239839 -0.1500000
v 0.0520000 1.6800000 0.0000000
v 0.1450000 1.8800000 0.0100000
v -0.0277784 2.2004207 -0.1734699
v -0.1450000 1.9100000 0.0350000
v -0.0550000 1.6800000 0.0000000
v 0.0000000 1.9100000 -0.1500000
v -0.2963734 1.6313911 0.0000000
v -0.2869892 1.8517566 0.0100000
v -0.5492664 2.0683542 -0.0998994
v -0.5663948 1.7684948 0.0350000
v -0.3952285 1.5904440 0.0000000
v -0.4324323 1.8239839 -0.1500000
v -0.5996266 1.4531657 0.0000000
v -0.6752870 1.6603479 0.0100000
v -1.0244435 1.8529973 -0.0942867
v -0.9015611 1.4765002 0.0350000
v -0.6752870 1.3775052 0.0000000
v -0.7990307 1.5790307 -0.1500000
v -0.8115920 1.1724568 0.0000000
v -0.9607784 1.3349143 0.0100000
v -1.2765044 1.3074717 -0.1693035
v -1.0994730 1.0784697 0.0350000
v -0.8525392 1.0736017 0.0000000
v -1.0439839 1.2124323 -0.1500000
v -0.9000000 0.8320000 0.0000000
v -1.1000000 0.9250000 0.0100000
v -1.4488658 0.7462020 -0.1555852
v -1.1300000 0.6350000 0.0350000
v -0.9000000 0.7250000 0.0000000
v -1.1300000 0.7800000 -0.1500000
v -0.8513911 0.4836266 0.0000000
v -1.0717566 0.4930108 0.0100000
v -1.3468648 0.2400074 -0.0841035
v -0.9884948 0.2136052 0.0350000
v -0.8104440 0.3847715 0.0000000
v -1.0439839 0.3475677 -0.1500000
v -0.6731657 0.1803734 0.0000000
v -0.8803479 0.1047130 0.0100000
v -0.9945234 -0.1773514 -0.1162418
v -0.6965002 -0.1215611 0.0350000
v -0.5975052 0.1047130 0.0000000
v -0.7990307 -0.0190307 -0.1500000
v -0.3924568 -0.0315920 0.0000000
v -0.5549143 -0.1807784 0.0100000
v -0.5410092 -0.6005298 -0.1794419
v -0.2984697 -0.3194730 0.0350000
v -0.2936017 -0.0725392 0.0000000
v -0.4324323 -0.2639839 -0.1500000
v -0.0520000 -0.1200000 0.0000000
v -0.1450000 -0.3200000 0.0100000
v 0.0133438 -0.6224244 -0.1310175
v 0.1450000 -0.3500000 0.0350000
v 0.0550000 -0.1200000 0.0000000
v -0.0000000 -0.3500000 -0.1500000
v 0.2963734 -0.0713911 0.0000000
v 0.2869892 -0.2917566 0.0100000
v 0.5108044 -0.5434537 -0.0802959
v 0.5663948 -0.2084948 0.0350000
v 0.3952285 -0.0304440 0.0000000
v 0.4324323 -0.2639839 -0.1500000
v 0.5996266 0.1068343 0.0000000
v 0.6752870 -0.1003479 0.0100000
v 1.0446422 -0.2613156 -0.1417907
v 0.9015611 0.0834998 0.0350000
v 0.6752870 0.1824948 0.0000000
v 0.7990307 -0.0190307 -0.1500000
v 0.8115920 0.3875432 0.0000000
v 0.9607784 0.2250857 0.0100000
v 1.2835656 0.2845608 -0.1766658
v 1.0994730 0.4815303 0.0350000
v 0.8525392 0.4863983 0.0000000
v 1.0439839 0.3475677 -0.1500000
v -0.0800000 -2.1000000 0.1000000
v -0.1214590 -2.1000000 0.1570634
v -0.1885410 -2.1000000 0.1352671
v -0.1885410 -2.1000000 0.0647329
v -0.1214590 -2.1000000 0.0429366
v -0.0570000 -1.5500000 0.1000000
v -0.1005319 -1.5500000 0.1599166
v -0.1709681 -1.5500000 0.1370305
v -0.1709681 -1.5500000 0.0629695
v -0.1005319 -1.5500000 0.0400834
v 0.0180000 -0.9800000 0.1000000
v -0.0220770 -0.9800000 0.1551613
v -0.0869230 -0.9800000 0.1340915
v -0.0869230 -0.9800000 0.0659085
v -0.0220770 -0.9800000 0.0448387
v 0.0650000 -0.3500000 0.1000000
v 0.0304508 -0.3500000 0.1475528
v -0.0254508 -0.3500000 0.1293893
v -0.0254508 -0.3500000 0.0706107
v 0.0304508 -0.3500000 0.0524472
v 0.0400000 0.0400000 0.1000000
v 0.0123607 0.0400000 0.1380423
v -0.0323607 0.0400000 0.1235114
v -0.0323607 0.0400000 0.0764886
v 0.0123607 0.0400000 0.0619577
v -0.1000000 -1.4850000 0.1450000
v -0.1000000 -1.4150000 0.1450000
v -0.1000000 -1.4500000 0.0350000
v -0.4200000 -1.3600000 0.0750000
v -0.4200000 -0.9400000 0.0750000
v -0.4200000 -1.1500000 -0.0350000
v -0.7800000 -1.1900000 -0.0050000
v -0.7800000 -0.8300000 -0.0050000
v -0.7800000 -1.0100000 -0.1150000
v -1.0200000 -0.9400000 -0.0750000
v -1.0200000 -0.9400000 -0.1850000
v -0.1000000 -1.1850000 0.1450000
v -0.1000000 -1.1150000 0.1450000
v -0.1000000 -1.1500000 0.0350000
v 0.2200000 -1.0600000 0.0750000
v 0.2200000 -0.6400000 0.0750000
v 0.2200000 -0.8500000 -0.0350000
v 0.5800000 -0.8900000 -0.0050000
v 0.5800000 -0.5300000 -0.0050000
v 0.5800000 -0.7100000 -0.1150000
v 0.8200000 -0.6400000 -0.0750000
v 0.8200000 -0.6400000 -0.1850000
g torus
usemtl green
f 1 6 7 2
f 2 7 8 3
g torus
usemtl brown
f 3 8 9 4
f 4 9 10 5
f 5 10 6 1
g torus
usemtl green
f 6 11 12 7
f 7 12 13 8
g torus
usemtl brown
f 8 13 14 9
f 9 14 15 10
f 10 15 11 6
g torus
usemtl green
f 11 16 17 12
f 12 17 18 13
g torus
usemtl brown
f 13 18 19 14
f 14 19 20 15
f 15 20 16 11
g torus
usemtl green
f 16 21 22 17
f 17 22 23 18
g torus
usemtl brown
f 18 23 24 19
f 19 24 25 20
f 20 25 21 16
g torus
usemtl green
f 21 26 27 22
f 22 27 28 23
g torus
usemtl brown
f 23 28 29 24
f 24 29 30 25
f 25 30 26 21
g torus
usemtl green
f 26 31 32 27
f 27 32 33 28
g torus
usemtl brown
f 28 33 34 29
f 29 34 35 30
f 30 35 31 26
g torus
usemtl green
f 31 36 37 32
f 32 37 38 33
g torus
usemtl brown
f 33 38 39 34
f 34 39 40 35
f 35 40 36 31
g torus
usemtl green
f 36 41 42 37
f 37 42 43 38
g torus
usemtl brown
f 38 43 44 39
f 39 44 45 40
f 40 45 41 36
g torus
usemtl green
f 41 46 47 42
f 42 47 48 43
g torus
usemtl brown
f 43 48 49 44
f 44 49 50 45
f 45 50 46 41
g torus
usemtl green
f 46 51 52 47
f 47 52 53 48
g torus
usemtl brown
f 48 53 54 49
f 49 54 55 50
f 50 55 51 46
g torus
usemtl green
f 51 56 57 52
f 52 57 58 53
g torus
usemtl brown
f 53 58 59 54
f 54 59 60 55
f 55 60 56 51
g torus
usemtl green
f 56 61 62 57
f 57 62 63 58
g torus
usemtl brown
f 58 63 64 59
f 59 64 65 60
f 60 65 61 56
g torus
usemtl green
f 61 66 67 62
f 62 67 68 63
g torus
usemtl brown
f 63 68 69 64
f 64 69 70 65
f 65 70 66 61
g torus
usemtl green
f 66 71 72 67
f 67 72 73 68
g torus
usemtl brown
f 68 73 74 69
f 69 74 75 70
f 70 75 71 66
g torus
usemtl green
f 71 76 77 72
f 72 77 78 73
g torus
usemtl brown
f 73 78 79 74
f 74 79 80 75
f 75 80 76 71
g torus
usemtl green
f 76 81 82 77
f 77 82 83 78
g torus
usemtl brown
f 78 83 84 79
f 79 84 85 80
f 80 85 81 76
g torus
usemtl green
f 81 86 87 82
f 82 87 88 83
g torus
usemtl brown
f 83 88 89 84
f 84 89 90 85
f 85 90 86 81
g torus
usemtl green
f 86 91 92 87
f 87 92 93 88
g torus
usemtl brown
f 88 93 94 89
f 89 94 95 90
f 90 95 91 86
g torus
usemtl green
f 91 96 97 92
f 92 97 98 93
g torus
usemtl brown
f 93 98 99 94
f 94 99 100 95
f 95 100 96 91
g torus
usemtl green
f 96 1 2 97
f 97 2 3 98
g torus
usemtl brown
f 98 3 4 99
f 99 4 5 100
f 100 5 1 96
g petal_00
usemtl yellow
f 101 102 103 104 105
f 106 102 101
f 106 103 102
f 106 104 103
f 106 105 104
f 106 101 105
g petal_01
usemtl yellow
f 107 108 109 110 111
f 112 108 107
f 112 109 108
f 112 110 109
f 112 111 110
f 112 107 111
g petal_02
usemtl yellow
f 113 114 115 116 117
f 118 114 113
f 118 115 114
f 118 116 115
f 118 117 116
f 118 113 117
g petal_03
usemtl yellow
f 119 120 121 122 123
f 124 120 119
f 124 121 120
f 124 122 121
f 124 123 122
f 124 119 123
g petal_04
usemtl yellow
f 125 126 127 128 129
f 130 126 125
f 130 127 126
f 130 128 127
f 130 129 128
f 130 125 129
g petal_05
usemtl yellow
f 131 132 133 134 135
f 136 132 131
f 136 133 132
f 136 134 133
f 136 135 134
f 136 131 135
g petal_06
usemtl yellow
f 137 138 139 140 141
f 142 138 137
f 142 139 138
f 142 140 139
f 142 141 140
f 142 137 141
g petal_07
usemtl yellow
f 143 144 145 146 147
f 148 144 143
f 148 145 144
f 148 146 145
f 148 147 146
f 148 143 147
g petal_08
usemtl yellow
f 149 150 151 152 153
f 154 150 149
f 154 151 150
f 154 152 151
f 154 153 152
f 154 149 153
g petal_09
usemtl yellow
f 155 156 157 158 159
f 160 156 155
f 160 157 156
f 160 158 157
f 160 159 158
f 160 155 159
g petal_10
usemtl yellow
f 161 162 163 164 165
f 166 162 161
f 166 163 162
f 166 164 163
f 166 165 164
f 166 161 165
g petal_11
usemtl yellow
f 167 168 169 170 171
f 172 168 167
f 172 169 168
f 172 170 169
f 172 171 170
f 172 167 171
g petal_12
usemtl yellow
f 173 174 175 176 177
f 178 174 173
f 178 175 174
f 178 176 175
f 178 177 176
f 178 173 177
g petal_13
usemtl yellow
f 179 180 181 182 183
f 184 180 179
f 184 181 180
f 184 182 181
f 184 183 182
f 184 179 183
g petal_14
usemtl yellow
f 185 186 187 188 189
f 190 186 185
f 190 187 186
f 190 188 187
f 190 189 188
f 190 185 189
g petal_15
usemtl yellow
f 191 192 193 194 195
f 196 192 191
f 196 193 192
f 196 194 193
f 196 195 194
f 196 191 195
g stem
usemtl green
f 197 198 199 200 201
f 202 203 198 197
f 203 204 199 198
f 204 205 200 199
f 205 206 201 200
f 206 202 197 201
f 207 208 203 202
f 208 209 204 203
f 209 210 205 204
f 210 211 206 205
f 211 207 202 206
f 212 213 208 207
f 213 214 209 208
f 214 215 210 209
f 215 216 211 210
f 216 212 207 211
f 217 218 213 212
f 218 219 214 213
f 219 220 215 214
f 220 221 216 215
f 221 217 212 216
f 221 220 219 218 217
g leaf_-1
usemtl green
f 224 222 225 227
f 227 226 223 224
f 222 223 226 225
f 227 225 228 230
f 230 229 226 227
f 225 226 229 228
f 230 228 231 232
f 232 231 229 230
f 228 229 231
f 222 224 223
g leaf_1
usemtl green
f 238 236 233 235
g leaf_1
usemtl light_green
f 235 234 237 238
g leaf_1
usemtl green
f 236 237 234 233
f 241 239 236 238
g leaf_1
usemtl light_green
f 238 237 240 241
g leaf_1
usemtl green
f 239 240 237 236
f 243 242 239 241
g leaf_1
usemtl light_green
f 241 240 242 243
g leaf_1
usemtl green
f 242 240 239
f 234 235 233
