# Low-poly sunflower with torus center
# Coordinate convention: +X right, +Y forward, +Z up
# Vertices: 76
# Faces: 70
mtllib sunflower_torus.mtl
o LowPolySunflower

v 0.670000 0.000000 2.550000
v 0.480000 0.190000 2.550000
v 0.290000 0.000000 2.550000
v 0.480000 -0.190000 2.550000
v 0.580237 0.000000 2.885000
v 0.415692 0.190000 2.790000
v 0.251147 0.000000 2.695000
v 0.415692 -0.190000 2.790000
v 0.335000 0.000000 3.130237
v 0.240000 0.190000 2.965692
v 0.145000 0.000000 2.801147
v 0.240000 -0.190000 2.965692
v 0.000000 0.000000 3.220000
v 0.000000 0.190000 3.030000
v 0.000000 0.000000 2.840000
v 0.000000 -0.190000 3.030000
v -0.335000 0.000000 3.130237
v -0.240000 0.190000 2.965692
v -0.145000 0.000000 2.801147
v -0.240000 -0.190000 2.965692
v -0.580237 0.000000 2.885000
v -0.415692 0.190000 2.790000
v -0.251147 0.000000 2.695000
v -0.415692 -0.190000 2.790000
v -0.670000 0.000000 2.550000
v -0.480000 0.190000 2.550000
v -0.290000 0.000000 2.550000
v -0.480000 -0.190000 2.550000
v -0.580237 0.000000 2.215000
v -0.415692 0.190000 2.310000
v -0.251147 0.000000 2.405000
v -0.415692 -0.190000 2.310000
v -0.335000 0.000000 1.969763
v -0.240000 0.190000 2.134308
v -0.145000 0.000000 2.298853
v -0.240000 -0.190000 2.134308
v -0.000000 0.000000 1.880000
v -0.000000 0.190000 2.070000
v -0.000000 0.000000 2.260000
v -0.000000 -0.190000 2.070000
v 0.335000 0.000000 1.969763
v 0.240000 0.190000 2.134308
v 0.145000 0.000000 2.298853
v 0.240000 -0.190000 2.134308
v 0.580237 0.000000 2.215000
v 0.415692 0.190000 2.310000
v 0.251147 0.000000 2.405000
v 0.415692 -0.190000 2.310000
v 1.342637 0.040000 2.909758
v 1.060660 0.000000 3.610660
v 0.370111 -0.040000 3.931274
v -0.401170 0.030000 4.047185
v -1.032376 -0.020000 3.582376
v -1.458548 0.050000 2.940817
v -1.361955 -0.030000 2.185065
v -1.081873 0.010000 1.468127
v -0.375288 -0.050000 1.149408
v 0.403758 0.040000 1.043156
v 1.004092 -0.010000 1.545908
v 1.439229 0.020000 2.164360
v -0.095000 -0.155000 0.000000
v 0.095000 -0.155000 0.000000
v 0.095000 0.035000 0.000000
v -0.095000 0.035000 0.000000
v -0.095000 -0.155000 1.910000
v 0.095000 -0.155000 1.910000
v 0.095000 0.035000 1.910000
v -0.095000 0.035000 1.910000
v -0.050000 -0.060000 1.250000
v -0.480000 -0.040000 1.370000
v -0.920000 -0.080000 1.180000
v -0.440000 0.000000 1.020000
v 0.050000 -0.060000 0.820000
v 0.450000 -0.090000 0.930000
v 0.820000 -0.050000 0.720000
v 0.380000 0.010000 0.580000

s off

usemtl center
f 1 5 6 2
f 2 6 7 3
f 3 7 8 4
f 4 8 5 1
f 5 9 10 6
f 6 10 11 7
f 7 11 12 8
f 8 12 9 5
f 9 13 14 10
f 10 14 15 11
f 11 15 16 12
f 12 16 13 9
f 13 17 18 14
f 14 18 19 15
f 15 19 20 16
f 16 20 17 13
f 17 21 22 18
f 18 22 23 19
f 19 23 24 20
f 20 24 21 17
f 21 25 26 22
f 22 26 27 23
f 23 27 28 24
f 24 28 25 21
f 25 29 30 26
f 26 30 31 27
f 27 31 32 28
f 28 32 29 25
f 29 33 34 30
f 30 34 35 31
f 31 35 36 32
f 32 36 33 29
f 33 37 38 34
f 34 38 39 35
f 35 39 40 36
f 36 40 37 33
f 37 41 42 38
f 38 42 43 39
f 39 43 44 40
f 40 44 41 37
f 41 45 46 42
f 42 46 47 43
f 43 47 48 44
f 44 48 45 41
f 45 1 2 46
f 46 2 3 47
f 47 3 4 48
f 48 4 1 45
usemtl petals
f 1 5 49
f 5 9 50
f 9 13 51
f 13 17 52
f 17 21 53
f 21 25 54
f 25 29 55
f 29 33 56
f 33 37 57
f 37 41 58
f 41 45 59
f 45 1 60
usemtl stem
f 61 62 66 65
f 62 63 67 66
f 63 64 68 67
f 64 61 65 68
f 64 63 62 61
f 65 66 67 68
usemtl leaves
f 69 70 71
f 69 71 72
f 73 74 75
f 73 75 76
