####
#
#	OBJ File Generated by LightWave3D
#	LightWave3D OBJ Export v2.3
#
####
o sande_tac2
mtllib sande_tac2.mtl
g default
v 0.122114 0.155437 -2.11692e-16
v 0.0610568 0.155437 -0.105753
v -0.0610568 0.155437 -0.105753
v -0.122114 0.155437 -2.11692e-16
v -0.0610568 0.155437 0.105753
v 0.0610568 0.155437 0.105753
v 0.122114 1.06257 -2.11692e-16
v 0.0610568 1.06257 -0.105753
v -0.0610568 1.06257 -0.105753
v -0.122114 1.06257 -2.11692e-16
v -0.0610568 1.06257 0.105753
v 0.0610568 1.06257 0.105753
v -1.04667 -0.298965 -0.526652
v -0.7011 -0.298965 -0.689754
v -0.348896 -0.298965 -1.04669
v 0.523344 -0.298965 -1.04669
v 0.7011 -0.298965 -0.689754
v 1.04667 -0.298965 -0.526652
v -0.907129 -0.298965 1.04669
v -1.04669 -0.298965 0.907129
v 1.04669 -0.298965 0.907129
v 0.907129 -0.298965 1.04669
v -1.04669 -1.3797 1.74448
v -1.39889 -1.3797 1.64922
v -1.64922 -1.3797 1.39889
v -1.74448 -1.3797 1.04669
v 1.04669 -1.3797 1.74448
v 1.74448 -1.3797 1.04669
v 1.64922 -1.3797 1.39889
v 1.39889 -1.3797 1.64922
v 1.74448 -1.3797 -1.04669
v 1.04669 -1.3797 -1.74448
v 1.39889 -1.3797 -1.64922
v 1.64922 -1.3797 -1.39889
v -1.74448 -1.3797 -1.04669
v -1.04669 -1.3797 -1.74448
v -1.39558 -1.7286 1.00034
v -1.33672 -1.7286 1.21798
v -1.21798 -1.7286 1.33672
v -1.00034 -1.7286 1.39558
v 1.00034 -1.7286 1.39558
v 1.21798 -1.7286 1.33672
v 1.33672 -1.7286 1.21798
v 1.39558 -1.7286 1.00034
v 1.39558 -1.7286 -1.00034
v 1.33672 -1.7286 -1.21798
v 1.21798 -1.7286 -1.33672
v 1.00034 -1.7286 -1.39558
v -1.00034 -1.7286 -1.39558
v -1.21798 -1.7286 -1.33672
v -1.33672 -1.7286 -1.21798
v -1.39558 -1.7286 -1.00034
v -1.64922 -1.3797 -1.39889
v -1.39889 -1.3797 -1.64922
v -1.00034 -0.333017 1.39558
v -1.21798 -0.333017 1.33672
v -1.33672 -0.333017 1.21798
v -1.39558 -0.333017 1.00034
v -1.39558 -0.333017 -1.00034
v -1.33672 -0.333017 -1.21798
v -1.21798 -0.333017 -1.33672
v -1.00034 -0.333017 -1.39558
v 1.00034 -0.333017 -1.39558
v 1.21798 -0.333017 -1.33672
v 1.33672 -0.333017 -1.21798
v 1.39558 -0.333017 -1.00034
v 1.39558 -0.333017 1.00034
v 1.33672 -0.333017 1.21798
v 1.21798 -0.333017 1.33672
v 1.00034 -0.333017 1.39558
v -1.39889 -0.681913 1.64922
v -1.04669 -0.681913 1.74448
v -1.64922 -0.681913 1.39889
v -1.74448 -0.681913 1.04669
v 1.04669 -0.681913 1.74448
v 1.64922 -0.681913 1.39889
v 1.74448 -0.681913 1.04669
v 1.39889 -0.681913 1.64922
v 1.74448 -0.681913 -1.04669
v 1.39889 -0.681913 -1.64922
v 1.04669 -0.681913 -1.74448
v 1.64922 -0.681913 -1.39889
v -1.74448 -0.681913 -1.04669
v -1.04669 -0.681913 -1.74448
v -1.64922 -0.681913 -1.39889
v -1.39889 -0.681913 -1.64922
v 0 2.21392 -2.11692e-16
v 0.296561 2.12534 -0.0963586
v 0 2.12534 -0.311823
v 0.50454 1.88605 -0.163935
v 0.296561 1.93262 -0.408182
v 0 1.88605 -0.530505
v 0.183285 2.12534 0.25227
v 0.311823 1.88605 0.429188
v 0.479846 1.93262 0.155912
v -0.183285 2.12534 0.25227
v -0.311823 1.88605 0.429188
v 7.74112e-17 1.93262 0.50454
v -0.296561 2.12534 -0.0963586
v -0.50454 1.88605 -0.163935
v -0.479846 1.93262 0.155912
v -0.296561 1.93262 -0.408182
v 0 1.02768 -2.11692e-16
v 0.183285 1.11626 -0.25227
v 0.296561 1.11626 0.0963586
v 0.311823 1.35555 -0.429188
v 0.479846 1.30898 -0.155912
v 0.50454 1.35555 0.163935
v 3.81873e-17 1.11626 0.311823
v 0.296561 1.30898 0.408182
v 6.49682e-17 1.35555 0.530505
v -0.296561 1.11626 0.0963586
v -0.296561 1.30898 0.408182
v -0.50454 1.35555 0.163935
v -0.183285 1.11626 -0.25227
v -0.479846 1.30898 -0.155912
v -0.311823 1.35555 -0.429188
v -7.74112e-17 1.30898 -0.50454
v 0.183285 1.6208 -0.564093
v 0.479846 1.6208 -0.348629
v 0.593123 1.6208 -2.69751e-16
v 0.479846 1.6208 0.348629
v 0.183285 1.6208 0.564093
v -0.183285 1.6208 0.564093
v -0.479846 1.6208 0.348629
v -0.593123 1.6208 -7.62229e-17
v -0.479846 1.6208 -0.348629
v -0.183285 1.6208 -0.564093
v 0.702327 -0.298127 -2.11692e-16
v 0.608233 -0.298127 -0.351164
v 0.351164 -0.298127 -0.608233
v 0 -0.298127 -0.702327
v -0.351164 -0.298127 -0.608233
v -0.608233 -0.298127 -0.351164
v -0.702327 -0.298127 -2.11692e-16
v -0.608233 -0.298127 0.351164
v -0.351164 -0.298127 0.608233
v 0 -0.298127 0.702327
v 0.351164 -0.298127 0.608233
v 0.608233 -0.298127 0.351164
v 0.383785 0.155437 -2.11692e-16
v 0.332368 0.155437 -0.191893
v 0.191893 0.155437 -0.332368
v 0 0.155437 -0.383785
v -0.191893 0.155437 -0.332368
v -0.332368 0.155437 -0.191893
v -0.383785 0.155437 -2.11692e-16
v -0.332368 0.155437 0.191893
v -0.191893 0.155437 0.332368
v 0 0.155437 0.383785
v 0.191893 0.155437 0.332368
v 0.332368 0.155437 0.191893
v -0.636735 -0.264075 -0.990864
v -0.685114 -0.264075 -1.17142
v -0.817288 -0.264075 -1.30359
v -0.997842 -0.264075 -1.35197
v -1.1784 -0.264075 -1.30359
v -1.31057 -0.264075 -1.17142
v -1.35895 -0.264075 -0.990864
v -1.31057 -0.264075 -0.81031
v -1.1784 -0.264075 -0.678136
v -0.997842 -0.264075 -0.629757
v -0.817288 -0.264075 -0.678136
v -0.685114 -0.264075 -0.81031
v -0.997842 -0.264075 -0.990864
v 0.636735 -0.264075 -0.990864
v 0.685114 -0.264075 -1.17142
v 0.817288 -0.264075 -1.30359
v 0.997842 -0.264075 -1.35197
v 1.1784 -0.264075 -1.30359
v 1.31057 -0.264075 -1.17142
v 1.35895 -0.264075 -0.990864
v 1.31057 -0.264075 -0.81031
v 1.1784 -0.264075 -0.678136
v 0.997842 -0.264075 -0.629757
v 0.817288 -0.264075 -0.678136
v 0.685114 -0.264075 -0.81031
v 0.997842 -0.264075 -0.990864
vn 0.866025 -2.18848e-23 -0.5
vn 0.866025 -2.18848e-23 -0.5
vn 0.866025 -2.18848e-23 -0.5
vn 0.866025 -2.18848e-23 -0.5
vn 0 0 -1
vn 0 0 -1
vn 0 0 -1
vn 0 0 -1
vn -0.866025 -2.18848e-23 -0.5
vn -0.866025 -2.18848e-23 -0.5
vn -0.866025 -2.18848e-23 -0.5
vn -0.866025 -2.18848e-23 -0.5
vn -0.866025 0 0.5
vn -0.866025 0 0.5
vn -0.866025 0 0.5
vn -0.866025 0 0.5
vn 0 0 1
vn 0 0 1
vn 0 0 1
vn 0 0 1
vn 0.866025 0 0.5
vn 0.866025 0 0.5
vn 0.866025 0 0.5
vn 0.866025 0 0.5
vn 0 1 0
vn 0 1 0
vn 0 1 0
vn 0 1 0
vn 0 1 0
vn 0 1 0
vn 0 1 0
vn 0 1 0
vn 0 1 0
vn 0 1 0
vn 0 -1 -0
vn 0 -1 -0
vn 0 -1 -0
vn 0 -1 -0
vn 0 -1 -0
vn 0 -1 -0
vn 0 -1 -0
vn 0 -1 -0
vn 0 -1 -0
vn 0 -1 -0
vn 0 -1 -0
vn 0 -1 -0
vn 0 -1 -0
vn 0 -1 -0
vn 0 -1 -0
vn 0 -1 -0
vn -0.68258 -0.707107 0.184619
vn -0.68258 -0.707107 0.184619
vn -0.68258 -0.707107 0.184619
vn -0.68258 -0.707107 0.184619
vn -0.707107 -0.707107 0
vn -0.707107 -0.707107 0
vn -0.707107 -0.707107 0
vn -0.707107 -0.707107 0
vn -0.184619 -0.707107 0.68258
vn -0.184619 -0.707107 0.68258
vn -0.184619 -0.707107 0.68258
vn -0.184619 -0.707107 0.68258
vn 0 -0.707107 0.707107
vn 0 -0.707107 0.707107
vn 0 -0.707107 0.707107
vn 0 -0.707107 0.707107
vn -0.5 -0.707107 0.5
vn -0.5 -0.707107 0.5
vn -0.5 -0.707107 0.5
vn -0.5 -0.707107 0.5
vn 0.68258 -0.707107 0.184619
vn 0.68258 -0.707107 0.184619
vn 0.68258 -0.707107 0.184619
vn 0.68258 -0.707107 0.184619
vn 0.707107 -0.707107 -0
vn 0.707107 -0.707107 -0
vn 0.707107 -0.707107 -0
vn 0.707107 -0.707107 -0
vn 0.184619 -0.707107 0.68258
vn 0.184619 -0.707107 0.68258
vn 0.184619 -0.707107 0.68258
vn 0.184619 -0.707107 0.68258
vn 0.5 -0.707107 0.5
vn 0.5 -0.707107 0.5
vn 0.5 -0.707107 0.5
vn 0.5 -0.707107 0.5
vn 0.184619 -0.707107 -0.68258
vn 0.184619 -0.707107 -0.68258
vn 0.184619 -0.707107 -0.68258
vn 0.184619 -0.707107 -0.68258
vn 0 -0.707107 -0.707107
vn 0 -0.707107 -0.707107
vn 0 -0.707107 -0.707107
vn 0 -0.707107 -0.707107
vn 0.68258 -0.707107 -0.184619
vn 0.68258 -0.707107 -0.184619
vn 0.68258 -0.707107 -0.184619
vn 0.68258 -0.707107 -0.184619
vn 0.5 -0.707107 -0.5
vn 0.5 -0.707107 -0.5
vn 0.5 -0.707107 -0.5
vn 0.5 -0.707107 -0.5
vn -0.68258 -0.707107 -0.184619
vn -0.68258 -0.707107 -0.184619
vn -0.68258 -0.707107 -0.184619
vn -0.68258 -0.707107 -0.184619
vn -0.184619 -0.707107 -0.68258
vn -0.184619 -0.707107 -0.68258
vn -0.184619 -0.707107 -0.68258
vn -0.184619 -0.707107 -0.68258
vn -0.5 -0.707107 -0.5
vn -0.5 -0.707107 -0.5
vn -0.5 -0.707107 -0.5
vn -0.5 -0.707107 -0.5
vn 0 1 0
vn 0 1 0
vn 0 1 0
vn 0 1 0
vn 0 1 0
vn 0 1 0
vn 0 1 0
vn 0 1 0
vn 0 1 0
vn 0 1 0
vn 0 1 0
vn 0 1 0
vn 0 1 0
vn 0 1 0
vn 0 1 0
vn 0 1 0
vn -0.261091 0 0.965314
vn -0.261091 0 0.965314
vn -0.261091 0 0.965314
vn -0.261091 0 0.965314
vn -0.707107 -0 0.707107
vn -0.707107 -0 0.707107
vn -0.707107 -0 0.707107
vn -0.707107 -0 0.707107
vn -0.965314 -0 0.261091
vn -0.965314 -0 0.261091
vn -0.965314 -0 0.261091
vn -0.965314 -0 0.261091
vn 0 0 1
vn 0 0 1
vn 0 0 1
vn 0 0 1
vn 0.965314 0 0.261091
vn 0.965314 0 0.261091
vn 0.965314 0 0.261091
vn 0.965314 0 0.261091
vn 0.707107 0 0.707107
vn 0.707107 0 0.707107
vn 0.707107 0 0.707107
vn 0.707107 0 0.707107
vn 0.261091 0 0.965314
vn 0.261091 0 0.965314
vn 0.261091 0 0.965314
vn 0.261091 0 0.965314
vn 1 0 -0
vn 1 0 -0
vn 1 0 -0
vn 1 0 -0
vn 0.261091 -0 -0.965314
vn 0.261091 -0 -0.965314
vn 0.261091 -0 -0.965314
vn 0.261091 -0 -0.965314
vn 0.707107 0 -0.707107
vn 0.707107 0 -0.707107
vn 0.707107 0 -0.707107
vn 0.707107 0 -0.707107
vn 0.965314 0 -0.261091
vn 0.965314 0 -0.261091
vn 0.965314 0 -0.261091
vn 0.965314 0 -0.261091
vn -1 0 -0
vn -1 0 -0
vn -1 0 -0
vn -1 0 -0
vn 0 0 -1
vn 0 0 -1
vn 0 0 -1
vn 0 0 -1
vn -0.965314 0 -0.261091
vn -0.965314 0 -0.261091
vn -0.965314 0 -0.261091
vn -0.965314 0 -0.261091
vn -0.707107 0 -0.707107
vn -0.707107 0 -0.707107
vn -0.707107 0 -0.707107
vn -0.707107 0 -0.707107
vn -0.261091 0 -0.965314
vn -0.261091 0 -0.965314
vn -0.261091 0 -0.965314
vn -0.261091 0 -0.965314
vn -0.184619 0.707107 0.68258
vn -0.184619 0.707107 0.68258
vn -0.184619 0.707107 0.68258
vn -0.184619 0.707107 0.68258
vn 0 0.707107 0.707107
vn 0 0.707107 0.707107
vn 0 0.707107 0.707107
vn 0 0.707107 0.707107
vn -0.68258 0.707107 0.184619
vn -0.68258 0.707107 0.184619
vn -0.68258 0.707107 0.184619
vn -0.68258 0.707107 0.184619
vn -0.707107 0.707107 -0
vn -0.707107 0.707107 -0
vn -0.707107 0.707107 -0
vn -0.707107 0.707107 -0
vn -0.5 0.707107 0.5
vn -0.5 0.707107 0.5
vn -0.5 0.707107 0.5
vn -0.5 0.707107 0.5
vn 0.68258 0.707107 0.184619
vn 0.68258 0.707107 0.184619
vn 0.68258 0.707107 0.184619
vn 0.68258 0.707107 0.184619
vn 0.707107 0.707107 0
vn 0.707107 0.707107 0
vn 0.707107 0.707107 0
vn 0.707107 0.707107 0
vn 0.184619 0.707107 0.68258
vn 0.184619 0.707107 0.68258
vn 0.184619 0.707107 0.68258
vn 0.184619 0.707107 0.68258
vn 0.5 0.707107 0.5
vn 0.5 0.707107 0.5
vn 0.5 0.707107 0.5
vn 0.5 0.707107 0.5
vn 0.184619 0.707107 -0.68258
vn 0.184619 0.707107 -0.68258
vn 0.184619 0.707107 -0.68258
vn 0.184619 0.707107 -0.68258
vn 0 0.707107 -0.707107
vn 0 0.707107 -0.707107
vn 0 0.707107 -0.707107
vn 0 0.707107 -0.707107
vn 0.68258 0.707107 -0.184619
vn 0.68258 0.707107 -0.184619
vn 0.68258 0.707107 -0.184619
vn 0.68258 0.707107 -0.184619
vn 0.5 0.707107 -0.5
vn 0.5 0.707107 -0.5
vn 0.5 0.707107 -0.5
vn 0.5 0.707107 -0.5
vn -0.68258 0.707107 -0.184619
vn -0.68258 0.707107 -0.184619
vn -0.68258 0.707107 -0.184619
vn -0.68258 0.707107 -0.184619
vn -0.184619 0.707107 -0.68258
vn -0.184619 0.707107 -0.68258
vn -0.184619 0.707107 -0.68258
vn -0.184619 0.707107 -0.68258
vn -0.5 0.707107 -0.5
vn -0.5 0.707107 -0.5
vn -0.5 0.707107 -0.5
vn -0.5 0.707107 -0.5
vn 0.194738 0.943522 -0.268034
vn 0.194738 0.943522 -0.268034
vn 0.194738 0.943522 -0.268034
vn 0.628428 0.661694 -0.40895
vn 0.628428 0.661694 -0.40895
vn 0.628428 0.661694 -0.40895
vn 0.194739 0.661694 -0.724043
vn 0.194739 0.661694 -0.724043
vn 0.194739 0.661694 -0.724043
vn 0.356822 0.794654 -0.491124
vn 0.356822 0.794654 -0.491124
vn 0.356822 0.794654 -0.491124
vn 0.315093 0.943522 0.10238
vn 0.315093 0.943522 0.10238
vn 0.315093 0.943522 0.10238
vn 0.583129 0.661694 0.471298
vn 0.583129 0.661694 0.471298
vn 0.583129 0.661694 0.471298
vn 0.748783 0.661694 -0.0385336
vn 0.748783 0.661694 -0.0385336
vn 0.748783 0.661694 -0.0385336
vn 0.57735 0.794654 0.187593
vn 0.57735 0.794654 0.187593
vn 0.57735 0.794654 0.187593
vn 0 0.943522 0.331309
vn 0 0.943522 0.331309
vn 0 0.943522 0.331309
vn -0.268034 0.661694 0.700228
vn -0.268034 0.661694 0.700228
vn -0.268034 0.661694 0.700228
vn 0.268034 0.661694 0.700228
vn 0.268034 0.661694 0.700228
vn 0.268034 0.661694 0.700228
vn 0 0.794654 0.607062
vn 0 0.794654 0.607062
vn 0 0.794654 0.607062
vn -0.315093 0.943522 0.10238
vn -0.315093 0.943522 0.10238
vn -0.315093 0.943522 0.10238
vn -0.748783 0.661694 -0.0385336
vn -0.748783 0.661694 -0.0385336
vn -0.748783 0.661694 -0.0385336
vn -0.583129 0.661694 0.471298
vn -0.583129 0.661694 0.471298
vn -0.583129 0.661694 0.471298
vn -0.57735 0.794654 0.187593
vn -0.57735 0.794654 0.187593
vn -0.57735 0.794654 0.187593
vn -0.194738 0.943522 -0.268034
vn -0.194738 0.943522 -0.268034
vn -0.194738 0.943522 -0.268034
vn -0.194739 0.661694 -0.724043
vn -0.194739 0.661694 -0.724043
vn -0.194739 0.661694 -0.724043
vn -0.628428 0.661694 -0.40895
vn -0.628428 0.661694 -0.40895
vn -0.628428 0.661694 -0.40895
vn -0.356822 0.794654 -0.491124
vn -0.356822 0.794654 -0.491124
vn -0.356822 0.794654 -0.491124
vn 0.315093 -0.943522 -0.10238
vn 0.315093 -0.943522 -0.10238
vn 0.315093 -0.943522 -0.10238
vn 0.583129 -0.661693 -0.471298
vn 0.583129 -0.661693 -0.471298
vn 0.583129 -0.661693 -0.471298
vn 0.748784 -0.661693 0.0385335
vn 0.748784 -0.661693 0.0385335
vn 0.748784 -0.661693 0.0385335
vn 0.577351 -0.794654 -0.187593
vn 0.577351 -0.794654 -0.187593
vn 0.577351 -0.794654 -0.187593
vn 0.194738 -0.943522 0.268034
vn 0.194738 -0.943522 0.268034
vn 0.194738 -0.943522 0.268034
vn 0.628428 -0.661693 0.40895
vn 0.628428 -0.661693 0.40895
vn 0.628428 -0.661693 0.40895
vn 0.194739 -0.661693 0.724043
vn 0.194739 -0.661693 0.724043
vn 0.194739 -0.661693 0.724043
vn 0.356822 -0.794654 0.491124
vn 0.356822 -0.794654 0.491124
vn 0.356822 -0.794654 0.491124
vn -0.194738 -0.943522 0.268034
vn -0.194738 -0.943522 0.268034
vn -0.194738 -0.943522 0.268034
vn -0.194739 -0.661693 0.724043
vn -0.194739 -0.661693 0.724043
vn -0.194739 -0.661693 0.724043
vn -0.628428 -0.661693 0.40895
vn -0.628428 -0.661693 0.40895
vn -0.628428 -0.661693 0.40895
vn -0.356822 -0.794654 0.491124
vn -0.356822 -0.794654 0.491124
vn -0.356822 -0.794654 0.491124
vn -0.315093 -0.943522 -0.10238
vn -0.315093 -0.943522 -0.10238
vn -0.315093 -0.943522 -0.10238
vn -0.748784 -0.661693 0.0385335
vn -0.748784 -0.661693 0.0385335
vn -0.748784 -0.661693 0.0385335
vn -0.583129 -0.661693 -0.471298
vn -0.583129 -0.661693 -0.471298
vn -0.583129 -0.661693 -0.471298
vn -0.577351 -0.794654 -0.187593
vn -0.577351 -0.794654 -0.187593
vn -0.577351 -0.794654 -0.187593
vn 0 -0.943522 -0.331309
vn 0 -0.943522 -0.331309
vn 0 -0.943522 -0.331309
vn -0.268034 -0.661693 -0.700228
vn -0.268034 -0.661693 -0.700228
vn -0.268034 -0.661693 -0.700228
vn 0.268034 -0.661693 -0.700228
vn 0.268034 -0.661693 -0.700228
vn 0.268034 -0.661693 -0.700228
vn 0 -0.794654 -0.607063
vn 0 -0.794654 -0.607063
vn 0 -0.794654 -0.607063
vn 0.315094 0.330384 -0.889698
vn 0.315094 0.330384 -0.889698
vn 0.315094 0.330384 -0.889698
vn 0.748783 0.330384 -0.574604
vn 0.748783 0.330384 -0.574604
vn 0.748783 0.330384 -0.574604
vn 0.583129 -0.125624 -0.802608
vn 0.583129 -0.125624 -0.802608
vn 0.583129 -0.125624 -0.802608
vn 0.57735 0.187593 -0.794654
vn 0.57735 0.187593 -0.794654
vn 0.57735 0.187593 -0.794654
vn 0.943522 0.330384 0.0247406
vn 0.943522 0.330384 0.0247406
vn 0.943522 0.330384 0.0247406
vn 0.777868 0.330384 0.534573
vn 0.777868 0.330384 0.534573
vn 0.777868 0.330384 0.534573
vn 0.943522 -0.125624 0.306569
vn 0.943522 -0.125624 0.306569
vn 0.943522 -0.125624 0.306569
vn 0.934172 0.187593 0.303531
vn 0.934172 0.187593 0.303531
vn 0.934172 0.187593 0.303531
vn 0.268035 0.330384 0.904988
vn 0.268035 0.330384 0.904988
vn 0.268035 0.330384 0.904988
vn -0.268035 0.330384 0.904988
vn -0.268035 0.330384 0.904988
vn -0.268035 0.330384 0.904988
vn 0 -0.125624 0.992078
vn 0 -0.125624 0.992078
vn 0 -0.125624 0.992078
vn 0 0.187593 0.982247
vn 0 0.187593 0.982247
vn 0 0.187593 0.982247
vn -0.777868 0.330384 0.534573
vn -0.777868 0.330384 0.534573
vn -0.777868 0.330384 0.534573
vn -0.943522 0.330384 0.0247406
vn -0.943522 0.330384 0.0247406
vn -0.943522 0.330384 0.0247406
vn -0.943522 -0.125624 0.306569
vn -0.943522 -0.125624 0.306569
vn -0.943522 -0.125624 0.306569
vn -0.934172 0.187593 0.303531
vn -0.934172 0.187593 0.303531
vn -0.934172 0.187593 0.303531
vn -0.748783 0.330384 -0.574604
vn -0.748783 0.330384 -0.574604
vn -0.748783 0.330384 -0.574604
vn -0.315094 0.330384 -0.889698
vn -0.315094 0.330384 -0.889698
vn -0.315094 0.330384 -0.889698
vn -0.583129 -0.125624 -0.802608
vn -0.583129 -0.125624 -0.802608
vn -0.583129 -0.125624 -0.802608
vn -0.57735 0.187593 -0.794654
vn -0.57735 0.187593 -0.794654
vn -0.57735 0.187593 -0.794654
vn 0.943522 -0.330384 -0.0247406
vn 0.943522 -0.330384 -0.0247406
vn 0.943522 -0.330384 -0.0247406
vn 0.777868 -0.330384 -0.534573
vn 0.777868 -0.330384 -0.534573
vn 0.777868 -0.330384 -0.534573
vn 0.943522 0.125624 -0.306569
vn 0.943522 0.125624 -0.306569
vn 0.943522 0.125624 -0.306569
vn 0.934172 -0.187593 -0.303531
vn 0.934172 -0.187593 -0.303531
vn 0.934172 -0.187593 -0.303531
vn 0.315094 -0.330384 0.889698
vn 0.315094 -0.330384 0.889698
vn 0.315094 -0.330384 0.889698
vn 0.748783 -0.330384 0.574604
vn 0.748783 -0.330384 0.574604
vn 0.748783 -0.330384 0.574604
vn 0.583129 0.125624 0.802608
vn 0.583129 0.125624 0.802608
vn 0.583129 0.125624 0.802608
vn 0.57735 -0.187593 0.794654
vn 0.57735 -0.187593 0.794654
vn 0.57735 -0.187593 0.794654
vn -0.748783 -0.330384 0.574604
vn -0.748783 -0.330384 0.574604
vn -0.748783 -0.330384 0.574604
vn -0.315094 -0.330384 0.889698
vn -0.315094 -0.330384 0.889698
vn -0.315094 -0.330384 0.889698
vn -0.583129 0.125624 0.802608
vn -0.583129 0.125624 0.802608
vn -0.583129 0.125624 0.802608
vn -0.57735 -0.187593 0.794654
vn -0.57735 -0.187593 0.794654
vn -0.57735 -0.187593 0.794654
vn -0.777868 -0.330384 -0.534573
vn -0.777868 -0.330384 -0.534573
vn -0.777868 -0.330384 -0.534573
vn -0.943522 -0.330384 -0.0247406
vn -0.943522 -0.330384 -0.0247406
vn -0.943522 -0.330384 -0.0247406
vn -0.943522 0.125624 -0.306569
vn -0.943522 0.125624 -0.306569
vn -0.943522 0.125624 -0.306569
vn -0.934172 -0.187593 -0.303531
vn -0.934172 -0.187593 -0.303531
vn -0.934172 -0.187593 -0.303531
vn 0.268035 -0.330384 -0.904988
vn 0.268035 -0.330384 -0.904988
vn 0.268035 -0.330384 -0.904988
vn -0.268035 -0.330384 -0.904988
vn -0.268035 -0.330384 -0.904988
vn -0.268035 -0.330384 -0.904988
vn -0 0.125624 -0.992078
vn -0 0.125624 -0.992078
vn -0 0.125624 -0.992078
vn 0 -0.187593 -0.982247
vn 0 -0.187593 -0.982247
vn 0 -0.187593 -0.982247
vn 0.799352 0.561391 -0.214186
vn 0.799352 0.561391 -0.214186
vn 0.799352 0.561391 -0.214186
vn 0.799352 0.561391 -0.214186
vn 0.585167 0.561391 -0.585167
vn 0.585167 0.561391 -0.585167
vn 0.585167 0.561391 -0.585167
vn 0.585167 0.561391 -0.585167
vn 0.214186 0.561391 -0.799352
vn 0.214186 0.561391 -0.799352
vn 0.214186 0.561391 -0.799352
vn 0.214186 0.561391 -0.799352
vn -0.214186 0.561391 -0.799352
vn -0.214186 0.561391 -0.799352
vn -0.214186 0.561391 -0.799352
vn -0.214186 0.561391 -0.799352
vn -0.585167 0.561391 -0.585167
vn -0.585167 0.561391 -0.585167
vn -0.585167 0.561391 -0.585167
vn -0.585167 0.561391 -0.585167
vn -0.799352 0.561391 -0.214186
vn -0.799352 0.561391 -0.214186
vn -0.799352 0.561391 -0.214186
vn -0.799352 0.561391 -0.214186
vn -0.799352 0.561391 0.214186
vn -0.799352 0.561391 0.214186
vn -0.799352 0.561391 0.214186
vn -0.799352 0.561391 0.214186
vn -0.585167 0.561391 0.585167
vn -0.585167 0.561391 0.585167
vn -0.585167 0.561391 0.585167
vn -0.585167 0.561391 0.585167
vn -0.214186 0.561391 0.799352
vn -0.214186 0.561391 0.799352
vn -0.214186 0.561391 0.799352
vn -0.214186 0.561391 0.799352
vn 0.214186 0.561391 0.799352
vn 0.214186 0.561391 0.799352
vn 0.214186 0.561391 0.799352
vn 0.214186 0.561391 0.799352
vn 0.585167 0.561391 0.585167
vn 0.585167 0.561391 0.585167
vn 0.585167 0.561391 0.585167
vn 0.585167 0.561391 0.585167
vn 0.799352 0.561391 0.214186
vn 0.799352 0.561391 0.214186
vn 0.799352 0.561391 0.214186
vn 0.799352 0.561391 0.214186
vn 0 1 -0
vn 0 1 -0
vn 0 1 -0
vn 0 1 -0
vn 0 1 -0
vn 0 1 -0
vn 0 1 -0
vn 0 1 -0
vn 0 1 -0
vn 0 1 -0
vn 0 1 -0
vn 0 1 -0
vn 0 1 -0
vn 0 1 -0
vn 0 1 -0
vn 0 1 0
vn 0 1 0
vn 0 1 0
vn 0 1 0
vn 0 1 0
vn 0 1 0
vn 0 1 -0
vn 0 1 -0
vn 0 1 -0
vn 0 1 0
vn 0 1 0
vn 0 1 0
vn 0 1 0
vn 0 1 0
vn 0 1 0
vn 0 1 0
vn 0 1 0
vn 0 1 0
vn 0 1 -0
vn 0 1 -0
vn 0 1 -0
vn -0 1 -0
vn -0 1 -0
vn -0 1 -0
vn -0 1 -0
vn -0 1 -0
vn -0 1 -0
vn 0 1 -0
vn 0 1 -0
vn 0 1 -0
vn 0 1 -0
vn 0 1 -0
vn 0 1 -0
vn 0 1 -0
vn 0 1 -0
vn 0 1 -0
vn 0 1 0
vn 0 1 0
vn 0 1 0
vn 0 1 0
vn 0 1 0
vn 0 1 0
vn 0 1 0
vn 0 1 0
vn 0 1 0
vn 0 1 -0
vn 0 1 -0
vn 0 1 -0
vn 0 1 0
vn 0 1 0
vn 0 1 0
vn 0 1 0
vn 0 1 0
vn 0 1 0
vn 0 1 -0
vn 0 1 -0
vn 0 1 -0
vn 0 1 -0
vn 0 1 -0
vn 0 1 -0
vn 0 1 -0
vn 0 1 -0
vn 0 1 -0
vn -0 1 -0
vn -0 1 -0
vn -0 1 -0
vn -0 1 -0
vn -0 1 -0
vn -0 1 -0
g white
usemtl white
s off
f 2//1 8//2 7//3 1//4
f 9//5 8//6 2//7 3//8
f 10//9 9//10 3//11 4//12
f 11//13 10//14 4//15 5//16
f 12//17 11//18 5//19 6//20
f 1//21 7//22 12//23 6//24
g grey
usemtl grey
f 22//25 21//26 18//27 17//28 16//29 15//30 14//31 13//32 20//33 19//34
g Default
usemtl Default
f 52//35 51//36 50//37 49//38 48//39 47//40 46//41 45//42 44//43 43//44 42//45 41//46 40//47 39//48 38//49 37//50
f 38//51 25//52 26//53 37//54
f 37//55 26//56 35//57 52//58
f 40//59 23//60 24//61 39//62
f 41//63 27//64 23//65 40//66
f 39//67 24//68 25//69 38//70
f 44//71 28//72 29//73 43//74
f 45//75 31//76 28//77 44//78
f 42//79 30//80 27//81 41//82
f 43//83 29//84 30//85 42//86
f 48//87 32//88 33//89 47//90
f 49//91 36//92 32//93 48//94
f 46//95 34//96 31//97 45//98
f 47//99 33//100 34//101 46//102
f 53//103 51//104 52//105 35//106
f 36//107 49//108 50//109 54//110
f 54//111 50//112 51//113 53//114
f 70//115 69//116 68//117 67//118 66//119 65//120 64//121 63//122 62//123 61//124 60//125 59//126 58//127 57//128 56//129 55//130
f 72//131 71//132 24//133 23//134
f 25//135 24//136 71//137 73//138
f 26//139 25//140 73//141 74//142
f 27//143 75//144 72//145 23//146
f 77//147 76//148 29//149 28//150
f 30//151 29//152 76//153 78//154
f 27//155 30//156 78//157 75//158
f 31//159 79//160 77//161 28//162
f 81//163 80//164 33//165 32//166
f 34//167 33//168 80//169 82//170
f 31//171 34//172 82//173 79//174
f 74//175 83//176 35//177 26//178
f 84//179 81//180 32//181 36//182
f 83//183 85//184 53//185 35//186
f 54//187 53//188 85//189 86//190
f 36//191 54//192 86//193 84//194
f 72//195 55//196 56//197 71//198
f 75//199 70//200 55//201 72//202
f 73//203 57//204 58//205 74//206
f 74//207 58//208 59//209 83//210
f 71//211 56//212 57//213 73//214
f 77//215 67//216 68//217 76//218
f 79//219 66//220 67//221 77//222
f 78//223 69//224 70//225 75//226
f 76//227 68//228 69//229 78//230
f 81//231 63//232 64//233 80//234
f 84//235 62//236 63//237 81//238
f 82//239 65//240 66//241 79//242
f 80//243 64//244 65//245 82//246
f 83//247 59//248 60//249 85//250
f 86//251 61//252 62//253 84//254
f 85//255 60//256 61//257 86//258
g grey
usemtl grey
f 89//259 87//260 88//261
g dark_grey
usemtl dark_grey
f 91//262 88//263 90//264
f 89//265 91//266 92//267
f 89//268 88//269 91//270
g grey
usemtl grey
f 88//271 87//272 93//273
f 95//274 93//275 94//276
g dark_grey
usemtl dark_grey
f 88//277 95//278 90//279
g grey
usemtl grey
f 88//280 93//281 95//282
g white
usemtl white
f 93//283 87//284 96//285
f 98//286 96//287 97//288
g grey
usemtl grey
f 93//289 98//290 94//291
g white
usemtl white
f 93//292 96//293 98//294
f 87//295 99//296 96//297
g grey
usemtl grey
f 101//298 99//299 100//300
g white
usemtl white
f 96//301 101//302 97//303
f 96//304 99//305 101//306
g grey
usemtl grey
f 87//307 89//308 99//309
g dark_grey
usemtl dark_grey
f 102//310 89//311 92//312
g grey
usemtl grey
f 99//313 102//314 100//315
f 99//316 89//317 102//318
g dark_grey
usemtl dark_grey
f 104//319 105//320 103//321
f 106//322 107//323 104//324
f 107//325 108//326 105//327
f 104//328 107//329 105//330
f 105//331 109//332 103//333
f 108//334 110//335 105//336
f 110//337 111//338 109//339
f 105//340 110//341 109//342
f 109//343 112//344 103//345
f 111//346 113//347 109//348
f 113//349 114//350 112//351
f 113//352 112//353 109//354
f 112//355 115//356 103//357
f 114//358 116//359 112//360
f 116//361 117//362 115//363
f 116//364 115//365 112//366
f 115//367 104//368 103//369
f 117//370 118//371 115//372
f 118//373 106//374 104//375
f 115//376 118//377 104//378
f 92//379 91//380 119//381
f 91//382 90//383 120//384
f 119//385 120//386 106//387
f 119//388 91//389 120//390
f 90//391 95//392 121//393
g grey
usemtl grey
f 95//394 94//395 122//396
g dark_grey
usemtl dark_grey
f 121//397 122//398 108//399
f 121//400 95//401 122//402
g grey
usemtl grey
f 94//403 98//404 123//405
f 98//406 97//407 124//408
g dark_grey
usemtl dark_grey
f 123//409 124//410 111//411
g grey
usemtl grey
f 98//412 124//413 123//414
f 97//415 101//416 125//417
f 101//418 100//419 126//420
g dark_grey
usemtl dark_grey
f 125//421 126//422 114//423
g grey
usemtl grey
f 101//424 126//425 125//426
f 100//427 102//428 127//429
g dark_grey
usemtl dark_grey
f 102//430 92//431 128//432
f 127//433 128//434 117//435
f 102//436 128//437 127//438
f 121//439 108//440 107//441
f 106//442 120//443 107//444
f 120//445 90//446 121//447
f 120//448 121//449 107//450
f 123//451 111//452 110//453
f 108//454 122//455 110//456
g grey
usemtl grey
f 122//457 94//458 123//459
g dark_grey
usemtl dark_grey
f 122//460 123//461 110//462
f 125//463 114//464 113//465
f 111//466 124//467 113//468
g grey
usemtl grey
f 97//469 125//470 124//471
g dark_grey
usemtl dark_grey
f 124//472 125//473 113//474
f 127//475 117//476 116//477
f 114//478 126//479 116//480
g grey
usemtl grey
f 100//481 127//482 126//483
g dark_grey
usemtl dark_grey
f 126//484 127//485 116//486
f 119//487 106//488 118//489
f 117//490 128//491 118//492
f 92//493 119//494 128//495
f 128//496 119//497 118//498
g grey
usemtl grey
f 130//499 142//500 141//501 129//502
f 131//503 143//504 142//505 130//506
f 132//507 144//508 143//509 131//510
f 145//511 144//512 132//513 133//514
f 146//515 145//516 133//517 134//518
f 147//519 146//520 134//521 135//522
f 148//523 147//524 135//525 136//526
f 149//527 148//528 136//529 137//530
f 150//531 149//532 137//533 138//534
f 139//535 151//536 150//537 138//538
f 140//539 152//540 151//541 139//542
f 129//543 141//544 152//545 140//546
f 142//547 143//548 144//549 145//550 146//551 147//552 148//553 149//554 150//555 151//556 152//557 141//558
g red
usemtl red
f 154//559 165//560 153//561
f 153//562 165//563 164//564
f 164//565 165//566 163//567
f 163//568 165//569 162//570
f 165//571 161//572 162//573
f 165//574 160//575 161//576
f 165//577 159//578 160//579
f 165//580 158//581 159//582
f 165//583 157//584 158//585
f 165//586 156//587 157//588
f 156//589 165//590 155//591
f 155//592 165//593 154//594
f 178//595 167//596 166//597
f 178//598 166//599 177//600
f 178//601 177//602 176//603
f 178//604 176//605 175//606
f 174//607 178//608 175//609
f 173//610 178//611 174//612
f 172//613 178//614 173//615
f 171//616 178//617 172//618
f 170//619 178//620 171//621
f 169//622 178//623 170//624
f 178//625 169//626 168//627
f 178//628 168//629 167//630
